<svg width="911" height="431" viewBox="0 0 911 431" fill="none" xmlns="http://www.w3.org/2000/svg">
<path d="M130.051 161.54H86.8213L79.8913 182H50.3563L92.2663 66.1701H124.936L166.846 182H136.981L130.051 161.54ZM122.791 139.76L108.436 97.3551L94.2463 139.76H122.791ZM215.242 105.275C218.542 100.215 222.667 96.2551 227.617 93.3951C232.567 90.4251 238.067 88.9401 244.117 88.9401V118.805H236.362C229.322 118.805 224.042 120.345 220.522 123.425C217.002 126.395 215.242 131.675 215.242 139.265V182H187.027V89.9301H215.242V105.275ZM351.818 134.48C351.818 137.12 351.653 139.87 351.323 142.73H287.468C287.908 148.45 289.723 152.85 292.913 155.93C296.213 158.9 300.228 160.385 304.958 160.385C311.998 160.385 316.893 157.415 319.643 151.475H349.673C348.133 157.525 345.328 162.97 341.258 167.81C337.298 172.65 332.293 176.445 326.243 179.195C320.193 181.945 313.428 183.32 305.948 183.32C296.928 183.32 288.898 181.395 281.858 177.545C274.818 173.695 269.318 168.195 265.358 161.045C261.398 153.895 259.418 145.535 259.418 135.965C259.418 126.395 261.343 118.035 265.193 110.885C269.153 103.735 274.653 98.2351 281.693 94.3851C288.733 90.5351 296.818 88.6101 305.948 88.6101C314.858 88.6101 322.778 90.4801 329.708 94.2201C336.638 97.9601 342.028 103.295 345.878 110.225C349.838 117.155 351.818 125.24 351.818 134.48ZM322.943 127.055C322.943 122.215 321.293 118.365 317.993 115.505C314.693 112.645 310.568 111.215 305.618 111.215C300.888 111.215 296.873 112.59 293.573 115.34C290.383 118.09 288.403 121.995 287.633 127.055H322.943ZM420.328 113.36H405.148V182H376.933V113.36H366.703V89.9301H376.933V87.2901C376.933 75.9601 380.178 67.3801 386.668 61.5501C393.158 55.6101 402.673 52.6401 415.213 52.6401C417.303 52.6401 418.843 52.6951 419.833 52.8051V76.7301C414.443 76.4001 410.648 77.1701 408.448 79.0401C406.248 80.9101 405.148 84.2651 405.148 89.1051V89.9301H420.328V113.36Z" fill="#00DE91"/>
<path d="M130.335 350.54H87.105L80.175 371H50.64L92.55 255.17H125.22L167.13 371H137.265L130.335 350.54ZM123.075 328.76L108.72 286.355L94.53 328.76H123.075ZM243.575 371L215.525 332.39V371H187.31V248.9H215.525V316.385L243.41 278.93H278.225L239.945 325.13L278.555 371H243.575ZM414.212 277.94C425.652 277.94 434.727 281.405 441.437 288.335C448.257 295.265 451.667 304.89 451.667 317.21V371H423.617V321.005C423.617 315.065 422.022 310.5 418.832 307.31C415.752 304.01 411.462 302.36 405.962 302.36C400.462 302.36 396.117 304.01 392.927 307.31C389.847 310.5 388.307 315.065 388.307 321.005V371H360.257V321.005C360.257 315.065 358.662 310.5 355.472 307.31C352.392 304.01 348.102 302.36 342.602 302.36C337.102 302.36 332.757 304.01 329.567 307.31C326.487 310.5 324.947 315.065 324.947 321.005V371H296.732V278.93H324.947V290.48C327.807 286.63 331.547 283.605 336.167 281.405C340.787 279.095 346.012 277.94 351.842 277.94C358.772 277.94 364.932 279.425 370.322 282.395C375.822 285.365 380.112 289.6 383.192 295.1C386.382 290.04 390.727 285.915 396.227 282.725C401.727 279.535 407.722 277.94 414.212 277.94ZM493.015 269.36C488.065 269.36 483.995 267.93 480.805 265.07C477.725 262.1 476.185 258.47 476.185 254.18C476.185 249.78 477.725 246.15 480.805 243.29C483.995 240.32 488.065 238.835 493.015 238.835C497.855 238.835 501.815 240.32 504.895 243.29C508.085 246.15 509.68 249.78 509.68 254.18C509.68 258.47 508.085 262.1 504.895 265.07C501.815 267.93 497.855 269.36 493.015 269.36ZM507.04 278.93V371H478.825V278.93H507.04ZM591.012 277.94C601.792 277.94 610.372 281.46 616.752 288.5C623.242 295.43 626.487 305 626.487 317.21V371H598.437V321.005C598.437 314.845 596.842 310.06 593.652 306.65C590.462 303.24 586.172 301.535 580.782 301.535C575.392 301.535 571.102 303.24 567.912 306.65C564.722 310.06 563.127 314.845 563.127 321.005V371H534.912V278.93H563.127V291.14C565.987 287.07 569.837 283.88 574.677 281.57C579.517 279.15 584.962 277.94 591.012 277.94ZM647.909 324.8C647.909 315.34 649.669 307.035 653.189 299.885C656.819 292.735 661.714 287.235 667.874 283.385C674.034 279.535 680.909 277.61 688.499 277.61C694.989 277.61 700.654 278.93 705.494 281.57C710.444 284.21 714.239 287.675 716.879 291.965V278.93H745.094V371H716.879V357.965C714.129 362.255 710.279 365.72 705.329 368.36C700.489 371 694.824 372.32 688.334 372.32C680.854 372.32 674.034 370.395 667.874 366.545C661.714 362.585 656.819 357.03 653.189 349.88C649.669 342.62 647.909 334.26 647.909 324.8ZM716.879 324.965C716.879 317.925 714.899 312.37 710.939 308.3C707.089 304.23 702.359 302.195 696.749 302.195C691.139 302.195 686.354 304.23 682.394 308.3C678.544 312.26 676.619 317.76 676.619 324.8C676.619 331.84 678.544 337.45 682.394 341.63C686.354 345.7 691.139 347.735 696.749 347.735C702.359 347.735 707.089 345.7 710.939 341.63C714.899 337.56 716.879 332.005 716.879 324.965ZM810.386 372.32C802.356 372.32 795.206 370.945 788.936 368.195C782.666 365.445 777.716 361.705 774.086 356.975C770.456 352.135 768.421 346.745 767.981 340.805H795.866C796.196 343.995 797.681 346.58 800.321 348.56C802.961 350.54 806.206 351.53 810.056 351.53C813.576 351.53 816.271 350.87 818.141 349.55C820.121 348.12 821.111 346.305 821.111 344.105C821.111 341.465 819.736 339.54 816.986 338.33C814.236 337.01 809.781 335.58 803.621 334.04C797.021 332.5 791.521 330.905 787.121 329.255C782.721 327.495 778.926 324.8 775.736 321.17C772.546 317.43 770.951 312.425 770.951 306.155C770.951 300.875 772.381 296.09 775.241 291.8C778.211 287.4 782.501 283.935 788.111 281.405C793.831 278.875 800.596 277.61 808.406 277.61C819.956 277.61 829.031 280.47 835.631 286.19C842.341 291.91 846.191 299.5 847.181 308.96H821.111C820.671 305.77 819.241 303.24 816.821 301.37C814.511 299.5 811.431 298.565 807.581 298.565C804.281 298.565 801.751 299.225 799.991 300.545C798.231 301.755 797.351 303.46 797.351 305.66C797.351 308.3 798.726 310.28 801.476 311.6C804.336 312.92 808.736 314.24 814.676 315.56C821.496 317.32 827.051 319.08 831.341 320.84C835.631 322.49 839.371 325.24 842.561 329.09C845.861 332.83 847.566 337.89 847.676 344.27C847.676 349.66 846.136 354.5 843.056 358.79C840.086 362.97 835.741 366.27 830.021 368.69C824.411 371.11 817.866 372.32 810.386 372.32ZM886.553 269.36C881.603 269.36 877.533 267.93 874.343 265.07C871.263 262.1 869.723 258.47 869.723 254.18C869.723 249.78 871.263 246.15 874.343 243.29C877.533 240.32 881.603 238.835 886.553 238.835C891.393 238.835 895.353 240.32 898.433 243.29C901.623 246.15 903.218 249.78 903.218 254.18C903.218 258.47 901.623 262.1 898.433 265.07C895.353 267.93 891.393 269.36 886.553 269.36ZM900.578 278.93V371H872.363V278.93H900.578Z" fill="black"/>
<path d="M163.484 421.3H22.1C15.4174 421.3 10 415.883 10 409.2V24.2001C10 17.5174 15.4174 12.1001 22.1 12.1001H401.324H458.877C465.56 12.1001 470.977 17.5174 470.977 24.2001L470.977 112.75" stroke="#00DE91" stroke-width="18.7" stroke-miterlimit="1.68207"/>
</svg>
